<?xml version="1.0" encoding="UTF-8"?>
<svg width="398px" height="398px" viewBox="0 0 398 398" version="1.1" xmlns="http://www.w3.org/2000/svg" xmlns:xlink="http://www.w3.org/1999/xlink">
    <!-- Generator: Sketch 43.1 (39012) - http://www.bohemiancoding.com/sketch -->
    <title>Untitled</title>
    <desc>Created with Sketch.</desc>
    <defs></defs>
    <g id="Page-1" stroke="none" stroke-width="1" fill="none" fill-rule="evenodd">
        <g id="image2vector">
            <path d="M320.099,96.1239303 C305.452,104.413617 264.544,143.914622 258.031,156.055602 C255.68,160.439542 255.54,236.911975 257.875,241.407791 C265.652,256.380313 314.964,301.443418 325.766,303.450249 C332.133,304.632368 341.345,301.368174 347.882,295.612025 C353.731,290.462776 354.393,288.503468 354.393,276.345657 C354.393,261.752323 354.194,261.426597 335.736,245.706587 C313.135,226.45903 309.159,219.472249 309.159,199 C309.159,178.530721 313.135,171.53899 335.686,152.356776 C354.26,136.557562 354.393,136.336781 354.393,121.088035 C354.393,110.25293 354.361,110.04403 352.246,106.742214 C346.192,97.290209 328.414,91.4182239 320.099,96.1239303 M351.402,162.431522 C338.456,164.934368 325.459,178.071338 322.995,191.143955 C316.064,227.907473 360.04,251.669657 386.509,225.46403 C413.25,198.989109 388.856,155.189308 351.402,162.431522" id="path0" fill="#FD8B29"></path>
            <path d="M168.148,255.681338 C155.884,256.969393 148.467,260.856328 138.846,271.03602 C135.505,274.571488 128.888,281.116706 124.142,285.581831 C97.529,310.622169 94.206,315.541726 94.206,329.895468 C94.206,342.766114 98.848,350.551866 108.31,353.546766 C113.012,355.035801 127.706,355.324896 130.33,353.980408 C134.695,351.742896 140.016,346.857 148.761,337.051547 C171.971,311.02908 175.092,309.356886 199.646,309.780627 L214.245,310.03408 L219.359,312.528015 C225.146,315.350647 231.439,321.18204 243.49,334.886308 C251.728,344.256139 259.051,350.221189 265.421,352.753736 C284.128,360.19198 306.052,345.681811 302.804,328.012393 C298.599,305.143234 253.207,261.208786 228.411,256.010035 C222.598,254.791284 178.891,254.552682 168.148,255.681338 M187.664,323.958139 C168.483,329.33609 156.007,349.63607 161.117,367.15104 C168.625,392.888373 193.047,404.147219 216.647,392.753726 C241.907,380.558294 239.772,335.341731 213.458,325.193721 C208.001,323.088876 193.277,322.38396 187.664,323.958139" id="path3" fill="#4FBD36"></path>
            <path d="M188.495,2.12860697 C145.464,13.9200995 153.634,74.9497363 198.251,75.003199 C224.601,75.0358706 241.584,50.3539303 232.584,25.1066716 C226.109,6.94618905 207.09,-2.96618905 188.495,2.12860697 M112.337,44.3265075 C98.179,48.1005771 93.925,53.8448458 94.329,68.6431194 C94.71,82.6315323 99.087,89.5985124 118.096,106.47193 C122.682,110.543015 129.318,117.125856 132.842,121.100905 C152.053,142.766164 151.919,142.722602 200.027,142.734483 L236.689,142.743393 L241.025,140.152433 C250.881,134.263617 271.104,116.096204 282.755,102.663209 C302.208,80.236602 306.31,70.1816567 300.74,58.5762935 C289.941,36.0744428 265.099,38.0456318 243.562,63.1136915 C223.235,86.7739005 221.487,87.7609801 199.224,88.1708607 C174.709,88.6213333 172.071,87.141209 146.75,58.7277711 C139.765,50.8885572 134.457,46.1343383 130.33,44.019592 C128.082,42.8681642 117.106,43.0552836 112.337,44.3265075" id="path6" fill="#1D95E2"></path>
            <path d="M54.855,96.4506468 C46.891,100.973194 40.596,111.309313 39.849,121.091995 C39.069,131.298418 41.544,134.950711 64.309,157.177328 C73.274,165.930358 81.65,174.739821 82.922,176.753582 L85.234,180.413796 L85.234,199 L85.234,217.586204 L82.922,221.246418 C81.65,223.260179 73.274,232.069642 64.309,240.822672 C41.444,263.147303 39.098,266.630299 39.828,277.174328 C41.169,296.548612 60.962,309.303423 77.228,301.2761 C97.237,291.402333 133.199,253.465607 139.049,236.061522 C140.566,231.546896 140.611,230.254881 140.403,197.372358 L140.187,163.354249 L136.98,156.948627 C126.546,136.10808 91.726,102.499851 73.617,95.7922637 C67.173,93.4052537 59.761,93.6646468 54.855,96.4506468 M28.045,162.450333 C18.423,164.36608 7.705,172.291428 2.92,181.026637 L0.374,185.67591 L0.374,198.629721 C0.374,213.803224 1.227,216.378343 9.037,224.778915 C27.69,244.843264 61.245,237.953507 70.395,212.179542 C72.978,204.902677 72.217,188.756945 68.984,182.260239 C62.287,168.800512 43.005,159.470284 28.045,162.450333" id="path8" fill="#A950C9"></path>
        </g>
    </g>
</svg>